<svg width="37" height="23" viewBox="0 0 37 23" fill="none"
    xmlns="http://www.w3.org/2000/svg">
    <path d="M33.1655 0H3.43091C1.53605 0 0 1.28716 0 2.875V20.125C0 21.7128 1.53605 23 3.43091 23H33.1655C35.0603 23 36.5964 21.7128 36.5964 20.125V2.875C36.5964 1.28716 35.0603 0 33.1655 0ZM33.1655 2.875V5.31905C31.5628 6.41269 29.0078 8.11325 23.5455 11.6974C22.3418 12.4908 19.9573 14.397 18.2982 14.3748C16.6393 14.3972 14.2541 12.4905 13.0508 11.6974C7.58946 8.11379 5.03379 6.41287 3.43091 5.31905V2.875H33.1655ZM3.43091 20.125V9.00821C5.06874 10.1014 7.3914 11.6354 10.9316 13.9584C12.4939 14.9889 15.2298 17.2638 18.2982 17.2499C21.3515 17.2638 24.0528 15.0219 25.6641 13.9588C29.2043 11.6359 31.5276 10.1015 33.1655 9.00827V20.125H3.43091Z" fill="#d64743"/>
</svg>
